<svg width="121" height="46" viewBox="0 0 121 46" fill="none" xmlns="http://www.w3.org/2000/svg">
<path d="M20.1255 0.136355C-1.67297 2.61058 -7.75921 33.0418 11.854 41.4849C25.1372 47.2099 39.8742 38.3424 41.3461 23.7409C41.5718 21.5285 41.7434 21.1402 42.4026 21.3479C43.5314 21.7001 42.4297 27.8947 40.5334 31.8227C36.6053 39.9859 28.6589 44.7537 19.3941 44.528C16.7754 44.4557 16.5948 44.4738 17.4888 44.6725C34.7451 48.5554 49.5002 32.1478 43.9106 15.2978C40.6508 5.48213 30.4198 -1.03755 20.1255 0.136355ZM24.3245 11.4329C25.968 12.2547 26.2208 12.8506 26.3111 16.1556L26.3743 18.9098H28.8937C32.3793 18.9098 33.4177 19.4426 34.0318 21.5736C34.9257 24.6439 33.1559 26.3144 29.002 26.3144H26.3743L26.3111 29.0686C26.2208 32.807 25.4894 33.9538 23.0422 34.2067C20.0623 34.5137 18.8884 33.0689 18.78 28.9783L18.7168 26.3144H16.0981C12.3597 26.3144 11.1677 25.5017 11.0142 22.874C10.8517 19.9482 12.2604 18.9098 16.36 18.9098H18.753V16.6974C18.762 15.4784 18.8342 14.1781 18.9245 13.7988C19.4663 11.442 22.067 10.3042 24.3245 11.4329ZM41.7795 14.2503C42.1769 14.7199 42.2491 14.9456 42.1678 15.4693C41.8969 17.1218 39.7929 17.4289 39.0796 15.9208C38.2669 14.2051 40.5514 12.7874 41.7795 14.2503Z" fill="#046D58"/>
<path d="M67.4234 28.56C67.41 28.72 67.39 28.8867 67.3634 29.06C67.3367 29.2333 67.29 29.3933 67.2234 29.54C67.1567 29.7 67.07 29.82 66.9634 29.9C66.8167 30.0333 66.6434 30.1067 66.4434 30.12C66.2567 30.1867 66.0767 30.2067 65.9034 30.18C65.73 30.1533 65.57 30.1067 65.4234 30.04C65.2367 29.92 65.0967 29.78 65.0034 29.62C64.9234 29.4467 64.8634 29.2667 64.8234 29.08C64.7834 28.8933 64.7634 28.7 64.7634 28.5C64.7634 28.3 64.7634 28.1133 64.7634 27.94V26.38L64.7434 23.32C64.7434 23.1067 64.7434 22.94 64.7434 22.82C64.7434 22.7 64.7434 22.5933 64.7434 22.5C64.7434 22.3933 64.7367 22.28 64.7234 22.16C64.7234 22.0267 64.7234 21.84 64.7234 21.6C64.7234 21.56 64.7234 21.4933 64.7234 21.4C64.7367 21.2933 64.73 21.02 64.7034 20.58C64.1834 21.4467 63.75 22.1467 63.4034 22.68C63.07 23.2 62.7834 23.6067 62.5434 23.9C62.3167 24.18 62.1167 24.3733 61.9434 24.48C61.77 24.5733 61.59 24.6267 61.4034 24.64C61.2967 24.6533 61.19 24.6333 61.0834 24.58C60.9767 24.5267 60.87 24.46 60.7634 24.38C60.67 24.3 60.5767 24.22 60.4834 24.14C60.4034 24.0467 60.3367 23.96 60.2834 23.88C59.9634 23.48 59.6034 23 59.2034 22.44C58.8034 21.88 58.39 21.2 57.9634 20.4C57.9634 20.4133 57.9567 20.6333 57.9434 21.06C57.9434 21.4867 57.9434 22.02 57.9434 22.66C57.9434 23.2867 57.9367 23.9667 57.9234 24.7C57.9234 25.42 57.9167 26.0933 57.9034 26.72C57.9034 27.3467 57.8967 27.8733 57.8834 28.3C57.87 28.7133 57.8567 28.92 57.8434 28.92C57.8434 29.1467 57.79 29.36 57.6834 29.56C57.5767 29.7467 57.43 29.9 57.2434 30.02C57.07 30.14 56.8634 30.2067 56.6234 30.22C56.3834 30.2333 56.1234 30.1667 55.8434 30.02C55.67 29.9133 55.5367 29.76 55.4434 29.56C55.3634 29.36 55.31 29.1733 55.2834 29C55.27 28.8133 55.2567 28.6333 55.2434 28.46C55.2434 28.2867 55.2434 28.1067 55.2434 27.92L55.2634 26.36L55.2834 23.28V20.6C55.2834 19.44 55.3234 18.3 55.4034 17.18C55.4034 17.0333 55.4167 16.9 55.4434 16.78C55.4834 16.6467 55.53 16.52 55.5834 16.4C55.69 16.1867 55.83 16.0267 56.0034 15.92C56.2034 15.8 56.4167 15.74 56.6434 15.74C56.7367 15.74 56.8234 15.7467 56.9034 15.76C56.9967 15.76 57.0834 15.7667 57.1634 15.78C57.43 15.8333 57.6567 15.9933 57.8434 16.26C58.0434 16.5133 58.23 16.7333 58.4034 16.92C58.51 17.04 58.6234 17.1867 58.7434 17.36C58.8634 17.5333 58.9834 17.7133 59.1034 17.9C59.2234 18.0867 59.3367 18.2667 59.4434 18.44C59.55 18.6133 59.6434 18.7667 59.7234 18.9C60.07 19.46 60.3767 19.9733 60.6434 20.44C60.9234 20.9067 61.1834 21.3067 61.4234 21.64C61.4634 21.6 61.51 21.5467 61.5634 21.48C61.6167 21.4 61.67 21.32 61.7234 21.24C61.79 21.1467 61.8434 21.06 61.8834 20.98C61.9367 20.9 61.9767 20.8333 62.0034 20.78C62.1367 20.5667 62.27 20.36 62.4034 20.16C62.5367 19.9467 62.6767 19.7267 62.8234 19.5C62.9834 19.26 63.1434 19 63.3034 18.72C63.4767 18.44 63.6767 18.12 63.9034 17.76C63.9967 17.6 64.1167 17.4067 64.2634 17.18C64.41 16.9533 64.5767 16.7333 64.7634 16.52C64.95 16.3067 65.1434 16.1267 65.3434 15.98C65.5567 15.82 65.77 15.74 65.9834 15.74C66.09 15.74 66.1834 15.7467 66.2634 15.76C66.3434 15.76 66.4234 15.7667 66.5034 15.78C66.6634 15.7933 66.8167 15.8667 66.9634 16C67.07 16.1067 67.15 16.22 67.2034 16.34C67.2567 16.5133 67.29 16.66 67.3034 16.78C67.3167 16.8733 67.3234 16.96 67.3234 17.04C67.3367 17.12 67.3434 17.2 67.3434 17.28C67.3434 18.0267 67.35 18.7667 67.3634 19.5C67.3767 20.2333 67.3834 20.9733 67.3834 21.72C67.3834 22.6267 67.3834 23.56 67.3834 24.52C67.3967 25.48 67.4034 26.4133 67.4034 27.32C67.4034 27.5067 67.41 27.7067 67.4234 27.92C67.4367 28.1333 67.4367 28.3467 67.4234 28.56ZM75.972 27.26C76.132 27.22 76.292 27.1933 76.452 27.18C76.6253 27.1667 76.7786 27.1867 76.912 27.24C77.0586 27.2933 77.1786 27.3867 77.272 27.52C77.3653 27.64 77.412 27.8133 77.412 28.04C77.412 28.2 77.372 28.3533 77.292 28.5C77.212 28.6467 77.112 28.78 76.992 28.9C76.872 29.02 76.7386 29.1267 76.592 29.22C76.4453 29.3 76.3053 29.3667 76.172 29.42C75.7853 29.5933 75.3386 29.7267 74.832 29.82C74.3386 29.9133 73.8253 29.9467 73.292 29.92C72.572 29.8933 71.8786 29.7533 71.212 29.5C70.5586 29.2333 70.0453 28.8 69.672 28.2C69.3253 27.6133 69.1186 26.96 69.052 26.24C68.9853 25.52 69.0186 24.84 69.152 24.2C69.2986 23.4267 69.5453 22.8 69.892 22.32C70.252 21.8267 70.6786 21.4333 71.172 21.14C71.772 20.7933 72.4453 20.6133 73.192 20.6C73.9386 20.5867 74.652 20.7333 75.332 21.04C75.7853 21.24 76.192 21.5133 76.552 21.86C76.912 22.1933 77.1853 22.6 77.372 23.08C77.4253 23.2 77.4653 23.3467 77.492 23.52C77.532 23.6933 77.5586 23.88 77.572 24.08C77.5853 24.2667 77.5853 24.4533 77.572 24.64C77.5586 24.8267 77.5253 24.9933 77.472 25.14C77.392 25.38 77.292 25.5667 77.172 25.7C77.052 25.8333 76.8986 25.9333 76.712 26C76.5253 26.0667 76.2986 26.1133 76.032 26.14C75.7786 26.1533 75.472 26.1667 75.112 26.18C74.792 26.1933 74.492 26.2 74.212 26.2C73.932 26.2 73.6453 26.2 73.352 26.2C73.0586 26.1867 72.752 26.18 72.432 26.18C72.1253 26.1667 71.7786 26.1533 71.392 26.14C71.352 26.4067 71.3853 26.64 71.492 26.84C71.612 27.0267 71.772 27.1867 71.972 27.32C72.172 27.44 72.3986 27.5333 72.652 27.6C72.9053 27.6667 73.152 27.7067 73.392 27.72C73.8453 27.7467 74.2786 27.7133 74.692 27.62C75.1053 27.5133 75.532 27.3933 75.972 27.26ZM75.112 23.38C74.8586 23.0867 74.592 22.8733 74.312 22.74C74.0986 22.6467 73.872 22.6067 73.632 22.62C73.4053 22.62 73.1853 22.6533 72.972 22.72C72.5853 22.8133 72.2586 23.0133 71.992 23.32C71.9653 23.3467 71.9186 23.4133 71.852 23.52C71.7853 23.6133 71.7186 23.7133 71.652 23.82C71.5986 23.9267 71.5586 24.0267 71.532 24.12C71.5053 24.2133 71.5186 24.26 71.572 24.26H75.492C75.4786 24.0733 75.4453 23.92 75.392 23.8C75.3386 23.6667 75.2453 23.5267 75.112 23.38ZM85.4287 16.02C85.682 15.9533 85.902 15.9467 86.0887 16C86.2887 16.04 86.4553 16.1267 86.5887 16.26C86.7353 16.3933 86.842 16.56 86.9087 16.76C86.9887 16.96 87.0287 17.18 87.0287 17.42C87.042 18.0867 87.042 18.6067 87.0287 18.98C87.0287 19.3533 87.0287 19.68 87.0287 19.96V26.1C87.0287 26.82 87.0287 27.42 87.0287 27.9C87.0287 28.38 87.002 28.7733 86.9487 29.08C86.9087 29.3733 86.8287 29.5933 86.7087 29.74C86.602 29.8867 86.4353 29.9867 86.2087 30.04C85.982 30.1067 85.682 30.14 85.3087 30.14C84.9487 30.14 84.4953 30.14 83.9487 30.14C82.5087 30.14 81.3687 29.8 80.5287 29.12C79.702 28.44 79.262 27.36 79.2087 25.88C79.182 25.24 79.262 24.6533 79.4487 24.12C79.6353 23.5867 79.9087 23.1333 80.2687 22.76C80.642 22.3733 81.0953 22.08 81.6287 21.88C82.1753 21.6667 82.7953 21.5667 83.4887 21.58H84.5887V18C84.5887 17.7867 84.5887 17.58 84.5887 17.38C84.5887 17.1667 84.6087 16.9733 84.6487 16.8C84.6887 16.6133 84.7687 16.4533 84.8887 16.32C85.0087 16.1867 85.1887 16.0867 85.4287 16.02ZM81.9487 27.12C82.2287 27.5067 82.7353 27.72 83.4687 27.76C83.6153 27.7733 83.7553 27.78 83.8887 27.78C84.022 27.7667 84.142 27.7467 84.2487 27.72C84.3687 27.7067 84.482 27.6867 84.5887 27.66V23.96C84.122 23.88 83.6953 23.8333 83.3087 23.82C82.9353 23.7933 82.562 23.9267 82.1887 24.22C81.9887 24.38 81.8353 24.5867 81.7287 24.84C81.622 25.08 81.562 25.34 81.5487 25.62C81.5353 25.8867 81.562 26.1533 81.6287 26.42C81.6953 26.6867 81.802 26.92 81.9487 27.12ZM91.1618 22.42C91.1618 22.7933 91.1618 23.2133 91.1618 23.68C91.1751 24.1467 91.1818 24.6333 91.1818 25.14C91.1818 25.6333 91.1818 26.1267 91.1818 26.62C91.1818 27.1 91.1751 27.5467 91.1618 27.96C91.1485 28.16 91.1285 28.38 91.1018 28.62C91.0751 28.8467 91.0218 29.06 90.9418 29.26C90.8618 29.46 90.7351 29.6267 90.5618 29.76C90.4018 29.88 90.1818 29.9333 89.9018 29.92C89.4885 29.8933 89.1885 29.7133 89.0018 29.38C88.8285 29.0467 88.7285 28.58 88.7018 27.98C88.7018 27.6733 88.6951 27.32 88.6818 26.92C88.6818 26.52 88.6751 26.1133 88.6618 25.7C88.6618 25.2867 88.6618 24.8867 88.6618 24.5C88.6618 24.1 88.6618 23.74 88.6618 23.42C88.6618 23.2333 88.6551 23.0067 88.6418 22.74C88.6418 22.4733 88.6485 22.2 88.6618 21.92C88.6751 21.64 88.7085 21.3733 88.7618 21.12C88.8151 20.8533 88.9018 20.6333 89.0218 20.46C89.1151 20.3533 89.2485 20.2733 89.4218 20.22C89.5951 20.1533 89.7751 20.12 89.9618 20.12C90.1618 20.12 90.3485 20.1533 90.5218 20.22C90.7085 20.2867 90.8418 20.38 90.9218 20.5C90.9751 20.58 91.0151 20.6933 91.0418 20.84C91.0685 20.9867 91.0885 21.1533 91.1018 21.34C91.1285 21.5133 91.1418 21.7 91.1418 21.9C91.1551 22.0867 91.1618 22.26 91.1618 22.42ZM90.4018 18.38C89.9885 18.4867 89.6418 18.4467 89.3618 18.26C89.0951 18.06 88.9285 17.7667 88.8618 17.38C88.8085 17.1 88.8285 16.8533 88.9218 16.64C89.0151 16.4267 89.1551 16.2667 89.3418 16.16C89.5285 16.04 89.7418 15.9867 89.9818 16C90.2218 16.0133 90.4618 16.1067 90.7018 16.28C90.9285 16.44 91.0885 16.6267 91.1818 16.84C91.2885 17.0533 91.3218 17.26 91.2818 17.46C91.2551 17.66 91.1685 17.8467 91.0218 18.02C90.8751 18.18 90.6685 18.3 90.4018 18.38ZM93.154 22.86C93.154 22.5533 93.1473 22.2267 93.134 21.88C93.134 21.5333 93.194 21.22 93.314 20.94C93.4207 20.6867 93.594 20.5067 93.834 20.4C94.0873 20.28 94.334 20.2533 94.574 20.32C94.814 20.36 95.0007 20.4333 95.134 20.54C95.2673 20.6467 95.3607 20.7733 95.414 20.92C95.4807 21.0533 95.5207 21.2133 95.534 21.4C95.5473 21.5733 95.5607 21.7467 95.574 21.92C95.7073 21.68 95.874 21.4867 96.074 21.34C96.274 21.1933 96.4807 21.0733 96.694 20.98C96.9073 20.8867 97.1073 20.82 97.294 20.78C97.494 20.74 97.6473 20.72 97.754 20.72C98.2607 20.72 98.7607 20.8333 99.254 21.06C99.7607 21.2733 100.181 21.58 100.514 21.98C100.701 22.22 100.841 22.4733 100.934 22.74C101.041 22.9933 101.114 23.26 101.154 23.54C101.207 23.82 101.241 24.1067 101.254 24.4C101.267 24.68 101.281 24.9667 101.294 25.26C101.361 26.1133 101.361 26.96 101.294 27.8C101.281 27.9733 101.274 28.1733 101.274 28.4C101.274 28.6267 101.254 28.8533 101.214 29.08C101.187 29.2933 101.127 29.4867 101.034 29.66C100.954 29.82 100.814 29.92 100.614 29.96C100.334 30.0267 100.101 30.04 99.914 30C99.7407 29.9733 99.6007 29.9133 99.494 29.82C99.3873 29.7267 99.3073 29.6067 99.254 29.46C99.2007 29.3133 99.154 29.1467 99.114 28.96C99.0873 28.8133 99.0607 28.6467 99.034 28.46C99.0207 28.26 99.0073 28.06 98.994 27.86C98.994 27.66 98.9873 27.4667 98.974 27.28C98.974 27.08 98.974 26.9 98.974 26.74C98.974 26.4867 98.9673 26.2067 98.954 25.9C98.9407 25.5933 98.9407 25.3067 98.954 25.04C98.954 24.4133 98.7873 23.94 98.454 23.62C98.134 23.2867 97.694 23.1467 97.134 23.2C96.7073 23.2533 96.334 23.4267 96.014 23.72C95.694 24 95.5407 24.3667 95.554 24.82C95.554 24.9933 95.554 25.1533 95.554 25.3C95.554 25.4467 95.5473 25.5933 95.534 25.74C95.534 25.8867 95.534 26.0467 95.534 26.22C95.534 26.3933 95.534 26.5867 95.534 26.8C95.534 27.24 95.534 27.7067 95.534 28.2C95.534 28.68 95.474 29.0733 95.354 29.38C95.2473 29.7 95.0673 29.92 94.814 30.04C94.5607 30.16 94.2607 30.1267 93.914 29.94C93.7673 29.86 93.6473 29.7533 93.554 29.62C93.474 29.4733 93.4073 29.32 93.354 29.16C93.314 29 93.2873 28.84 93.274 28.68C93.2607 28.5067 93.2473 28.3467 93.234 28.2C93.194 27.76 93.1673 27.3533 93.154 26.98C93.154 26.5933 93.154 26.18 93.154 25.74V22.86ZM108.698 21.54C108.925 21.6067 109.072 21.7333 109.138 21.92C109.205 22.0933 109.225 22.28 109.198 22.48C109.118 22.8933 108.892 23.1467 108.518 23.24C108.305 23.2933 108.085 23.32 107.858 23.32C107.645 23.32 107.425 23.3267 107.198 23.34V27.96C107.198 28.28 107.178 28.6067 107.138 28.94C107.138 29.06 107.105 29.1867 107.038 29.32C107.012 29.3867 106.992 29.4267 106.978 29.44C106.978 29.4667 106.965 29.5067 106.938 29.56C106.858 29.7067 106.752 29.8267 106.618 29.92C106.325 30.08 106.012 30.12 105.678 30.04C105.478 30 105.325 29.9333 105.218 29.84C105.098 29.7467 105.012 29.6333 104.958 29.5C104.932 29.4333 104.912 29.3667 104.898 29.3C104.885 29.2333 104.865 29.1667 104.838 29.1C104.825 29.0333 104.812 28.9733 104.798 28.92C104.798 28.8533 104.798 28.8 104.798 28.76V27.6C104.798 26.9067 104.798 26.1867 104.798 25.44C104.812 24.6933 104.818 23.9733 104.818 23.28C104.512 23.2667 104.192 23.26 103.858 23.26C103.538 23.2467 103.305 23.1667 103.158 23.02C103.078 22.94 103.025 22.84 102.998 22.72C102.972 22.5867 102.958 22.4533 102.958 22.32C102.972 22.1867 102.998 22.0667 103.038 21.96C103.078 21.84 103.132 21.7533 103.198 21.7C103.372 21.54 103.525 21.4533 103.658 21.44C103.805 21.4133 103.985 21.3933 104.198 21.38C104.225 21.38 104.312 21.38 104.458 21.38C104.618 21.3667 104.718 21.36 104.758 21.36C104.772 20.9067 104.785 20.4533 104.798 20C104.812 19.5467 104.852 19.1333 104.918 18.76C104.998 18.3733 105.112 18.04 105.258 17.76C105.418 17.4667 105.658 17.2467 105.978 17.1C106.365 16.9267 106.805 16.82 107.298 16.78C107.792 16.74 108.238 16.8 108.638 16.96C108.825 17.0267 109.005 17.16 109.178 17.36C109.365 17.56 109.452 17.78 109.438 18.02C109.425 18.26 109.378 18.48 109.298 18.68C109.218 18.88 109.045 19.0133 108.778 19.08C108.658 19.1067 108.532 19.12 108.398 19.12C108.278 19.1067 108.152 19.1 108.018 19.1C107.885 19.1 107.758 19.12 107.638 19.16C107.532 19.1867 107.438 19.2467 107.358 19.34C107.292 19.42 107.245 19.5267 107.218 19.66C107.205 19.7933 107.192 19.9333 107.178 20.08C107.165 20.2267 107.158 20.3733 107.158 20.52C107.172 20.6533 107.178 20.7667 107.178 20.86V21.36C107.485 21.3867 107.765 21.4067 108.018 21.42C108.285 21.4333 108.512 21.4733 108.698 21.54ZM112.843 20.96C113.283 20.7467 113.743 20.5933 114.223 20.5C114.703 20.4067 115.176 20.3867 115.643 20.44C116.123 20.4933 116.583 20.62 117.023 20.82C117.476 21.02 117.89 21.3 118.263 21.66C118.57 21.9667 118.836 22.34 119.063 22.78C119.29 23.2067 119.456 23.6267 119.563 24.04C119.79 24.7733 119.823 25.5133 119.663 26.26C119.503 27.0067 119.23 27.7 118.843 28.34C118.656 28.6333 118.423 28.9 118.143 29.14C117.876 29.3667 117.59 29.5533 117.283 29.7C116.883 29.8867 116.45 30.0133 115.983 30.08C115.516 30.16 115.063 30.18 114.623 30.14C113.823 30.1 113.116 29.9 112.503 29.54C111.903 29.18 111.416 28.72 111.043 28.16C110.683 27.6 110.443 26.9667 110.323 26.26C110.216 25.54 110.263 24.8067 110.463 24.06C110.676 23.26 110.983 22.6133 111.383 22.12C111.796 21.6133 112.283 21.2267 112.843 20.96ZM113.443 23.64C113.243 23.8267 113.09 24.06 112.983 24.34C112.876 24.62 112.81 24.9133 112.783 25.22C112.756 25.5133 112.776 25.8133 112.843 26.12C112.923 26.4133 113.043 26.68 113.203 26.92C113.336 27.12 113.576 27.2867 113.923 27.42C114.27 27.5533 114.63 27.6333 115.003 27.66C115.43 27.6867 115.803 27.5733 116.123 27.32C116.443 27.0533 116.683 26.7267 116.843 26.34C117.016 25.9533 117.096 25.5333 117.083 25.08C117.07 24.6267 116.95 24.2133 116.723 23.84C116.563 23.5733 116.336 23.38 116.043 23.26C115.763 23.1267 115.463 23.06 115.143 23.06C114.836 23.0467 114.53 23.0933 114.223 23.2C113.916 23.2933 113.656 23.44 113.443 23.64Z" fill="#046D58"/>
</svg>
