<svg width="46" height="46" viewBox="0 0 46 46" fill="none" xmlns="http://www.w3.org/2000/svg">
<path d="M20.1255 0.13634C-1.67297 2.61057 -7.75921 33.0418 11.854 41.4848C25.1372 47.2099 39.8742 38.3424 41.3461 23.7408C41.5718 21.5285 41.7434 21.1402 42.4026 21.3479C43.5314 21.7 42.4297 27.8947 40.5334 31.8227C36.6053 39.9859 28.6589 44.7537 19.3941 44.528C16.7754 44.4557 16.5948 44.4738 17.4888 44.6724C34.7451 48.5554 49.5002 32.1478 43.9106 15.2978C40.6508 5.48212 30.4198 -1.03756 20.1255 0.13634ZM24.3245 11.4329C25.968 12.2546 26.2208 12.8506 26.3111 16.1556L26.3743 18.9098H28.8937C32.3793 18.9098 33.4177 19.4425 34.0318 21.5736C34.9257 24.6438 33.1559 26.3144 29.002 26.3144H26.3743L26.3111 29.0686C26.2208 32.807 25.4894 33.9538 23.0422 34.2066C20.0623 34.5137 18.8884 33.0689 18.78 28.9783L18.7168 26.3144H16.0981C12.3597 26.3144 11.1677 25.5017 11.0142 22.874C10.8517 19.9482 12.2604 18.9098 16.36 18.9098H18.753V16.6974C18.762 15.4784 18.8342 14.178 18.9245 13.7988C19.4663 11.4419 22.067 10.3042 24.3245 11.4329ZM41.7795 14.2503C42.1769 14.7198 42.2491 14.9456 42.1678 15.4693C41.8969 17.1218 39.7929 17.4288 39.0796 15.9208C38.2669 14.2051 40.5514 12.7874 41.7795 14.2503Z" fill="#046D58"/>
</svg>
