<svg width="83" height="83" viewBox="0 0 83 83" fill="none" xmlns="http://www.w3.org/2000/svg">
<path d="M82.8352 83H0.358032C0.890664 77.7382 2.77908 71.04 5.23242 69.3775C8.13768 67.4084 13.351 65.6007 18.3868 63.1635C22.1314 61.3397 27.4577 58.1761 29.911 56.6912C30.25 56.4975 30.5243 56.32 30.7342 56.207C31.0731 55.9811 31.2668 55.8681 31.2668 55.8681H51.9103C51.9103 55.8681 52.104 55.9811 52.4429 56.1909H52.4591C52.4591 56.1909 52.4591 56.1909 52.4591 56.207C52.6689 56.32 52.9433 56.4814 53.2661 56.6912C55.7356 58.1761 61.0619 61.3397 64.8065 63.1635C69.8261 65.6007 75.0556 67.4084 77.9608 69.3775C80.4303 71.04 82.3187 77.7382 82.8352 83Z" fill="#046D58"/>
<path d="M54.4928 61.3558C54.5089 61.8884 54.4928 62.4533 54.4444 63.0667C54.4605 63.099 54.4444 63.0989 54.4444 63.1151C54.4121 63.6316 54.3475 64.1965 54.2507 64.8098C54.1377 65.5846 53.9763 66.6175 53.7665 67.8604C53.137 71.6695 52.104 77.3509 51.071 83H32.1223C31.0893 77.367 30.0563 71.6695 29.4268 67.8604C29.2331 66.6175 29.0556 65.5684 28.9426 64.8098C28.8619 64.2449 28.7974 63.7123 28.7489 63.2119V63.1635C28.7489 63.1312 28.7328 63.1151 28.7489 63.099C28.7005 62.4695 28.6844 61.9207 28.7005 61.3881C28.7005 61.3719 28.7005 61.3719 28.7005 61.3558C28.7328 61.2589 28.7489 61.1621 28.7812 61.0814C28.8135 60.9361 28.8619 60.807 28.8942 60.6618C28.9426 60.4842 29.0072 60.3551 29.0879 60.2098C29.1363 60.0646 29.2009 59.9193 29.2816 59.7902C29.3461 59.6611 29.4107 59.5319 29.4752 59.4189C29.6851 59.0316 29.8949 58.6765 30.1209 58.3537C30.4437 57.8533 30.7503 57.3691 30.7503 57.0947V56.207C30.7503 56.1909 30.7503 56.1909 30.7503 56.1909V55.8681H52.4591V57.0947C52.4591 57.3691 52.7658 57.8533 53.1047 58.3537C53.5082 58.9832 53.9763 59.7256 54.2991 60.6618C54.3475 60.7909 54.3959 60.9361 54.4444 61.0814C54.4444 61.1783 54.4605 61.2751 54.4928 61.3558Z" fill="#F6F6F6"/>
<path d="M60.2709 27.9291C59.8674 27.4127 59.3993 27.3158 59.0927 27.3158C58.1243 27.3158 57.4464 28.2035 56.9783 29.1397V23.2807C56.9783 20.7305 56.6878 17.0183 54.2344 14.2421C51.7488 11.4498 47.6169 10.0941 41.5804 10.0941C35.8667 10.0941 31.7186 11.8695 29.2814 15.3881C27.2962 18.2449 26.9895 21.5698 26.9895 23.2807V29.1235C26.5376 28.2035 25.8436 27.2997 24.8751 27.2997C24.5685 27.2997 24.1004 27.4127 23.6969 27.913C22.6155 29.2527 22.5509 32.6098 23.0997 35.0632C23.6807 37.6779 24.4555 39.4211 25.4562 40.4056C25.892 40.8253 26.5214 41.0674 27.1832 41.0674C27.28 41.0674 27.3769 41.0674 27.4576 41.0512C27.9418 43.4077 28.8941 46.2484 30.7341 48.5888V56.0456C30.7341 56.3039 30.4274 56.7397 30.1046 57.1916C29.572 57.9502 28.8941 58.9025 28.6358 60.2098C28.1516 62.5663 29.8302 68.2477 32.0092 71.6695C32.106 71.8148 32.2029 71.9762 32.2997 72.1376C33.9137 74.6877 35.9151 77.8512 41.4997 78.2063H41.645H41.6772C47.2618 77.8512 49.2632 74.6716 50.8772 72.1376C50.9741 71.9762 51.0709 71.8309 51.1678 71.6695C53.3629 68.2477 55.0253 62.5825 54.5411 60.2098C54.2667 58.9025 53.605 57.9663 53.0723 57.1916C52.7495 56.7235 52.4429 56.2877 52.4429 56.0456V49.4604C54.7993 46.9586 55.9614 43.6983 56.4941 41.0351C56.5909 41.0512 56.6716 41.0512 56.7685 41.0512C57.4464 41.0512 58.0758 40.8091 58.4955 40.3895C59.4962 39.4211 60.2709 37.6618 60.852 35.047C61.4169 32.626 61.3523 29.2688 60.2709 27.9291Z" fill="#FDEDDF"/>
<path d="M61.3363 15.3235C61.8366 15.4526 62.1917 15.5656 62.2079 15.5656L63.725 16.0821L62.9664 14.6779C62.8212 14.4035 59.2864 7.97967 55.1707 5.23581C52.3461 3.34738 51.6036 3.13756 49.3924 2.96002H49.3763H49.3601C48.5854 2.96002 47.9559 3.10528 47.4879 3.25054C47.4233 2.50809 47.4717 1.79791 47.6815 1.58809L48.1173 1.1523L47.6493 0.716507C47.4717 0.538964 47.3587 0.490542 46.0675 0.425981C45.2928 0.37756 44.3405 0.36142 43.4043 0.36142C41.5643 0.36142 38.2879 0.442121 36.8514 0.974753C34.6724 1.78177 32.2675 4.00914 31.864 6.15581C28.0064 6.33335 26.2794 8.30247 24.6331 11.579C23.8745 13.193 22.8093 15.6625 22.3412 18.6162L22.1959 19.5039L23.0836 19.3263C23.245 19.2941 23.4064 19.2618 23.5356 19.2295C23.0998 20.3432 22.7124 22.2155 22.9222 25.3305C23.0029 26.4765 23.5356 28.139 24.3426 29.866C25.5531 32.4323 28.8619 35.4183 28.8619 35.4183V32.739C28.8619 29.2365 29.5398 25.8632 29.8626 24.4428C30.9601 24.8786 31.7349 24.9755 32.2191 24.9755C32.6387 24.9755 32.8647 24.8948 32.9293 24.8786L33.6394 24.6204L33.2521 23.9748C32.5096 22.7158 32.3482 20.9726 32.4935 19.5523C33.5426 21.0533 34.8984 22.0702 36.5608 22.5383L37.9489 22.9418L37.3033 21.6505C36.3349 19.746 36.1089 18.2449 36.0766 17.3249C36.0605 16.7116 36.125 16.2274 36.238 15.8562C39.3047 20.0204 42.8394 23.2807 45.4219 24.2814L46.5356 24.7172L46.2612 23.5551C45.7608 21.5053 44.7601 18.939 44.05 17.2765C48.9082 20.0849 55.7033 24.2814 55.7033 29.1235C55.7033 33.2877 55.7356 33.5621 55.7356 33.5944L55.7678 35.386C55.7678 35.386 59.351 32.6905 60.8198 30.4148C61.6914 29.0751 61.7882 25.7986 61.7882 25.0077C61.7882 24.459 61.6752 23.8779 61.5461 23.3937C61.9335 23.5067 62.337 23.6035 62.5629 23.6197L63.4184 23.7165L63.257 22.8772C62.5629 19.3425 61.9335 16.8407 61.3363 15.3235Z" fill="#FFDD8F"/>
<path opacity="0.3" d="M32.106 13.8871L32.2836 13.4351L32.8646 11.9664C32.8646 11.9664 32.6548 11.8534 32.3159 11.7727C31.8962 11.6597 31.2667 11.579 30.5727 11.7727C30.6373 11.5144 30.6857 11.2723 30.7664 11.0464C30.9601 10.4007 31.2183 9.83583 31.5089 9.35162C30.8955 9.59373 28.5067 10.7074 27.4738 13.8548C27.3931 14.1292 27.3124 14.4036 27.2478 14.7102C27.7643 14.6457 28.2808 14.6295 28.7004 14.6134C29.2976 14.6134 29.7173 14.6457 29.7173 14.6457L28.9425 16.4372L28.7811 16.8085C28.7811 16.8085 29.1362 16.873 29.685 16.8246C30.718 16.7439 32.4289 16.3081 33.8653 14.452C33.9299 14.3713 33.9945 14.2744 34.059 14.1937C34.2043 14 34.3173 13.8064 34.4141 13.5965C34.1559 13.6934 33.9138 13.7579 33.6878 13.8064C32.7517 14 32.106 13.8871 32.106 13.8871Z" fill="white"/>
<path opacity="0.1" d="M61.1426 32.3193C59.3672 34.4175 56.7847 36.3705 56.6556 36.4835L54.2346 38.3074L54.1377 33.4814C54.1054 33.094 54.1054 30.8182 54.1054 28.9944C54.1054 26.0246 50.4577 23.0386 47.0682 20.8274C47.3265 21.586 47.5525 22.3446 47.73 23.0547L48.6984 27.106L44.8247 25.5888C43.0493 24.9109 40.9833 23.3614 38.8689 21.247L40.9026 25.2821L36.0928 23.894C35.6247 23.7488 35.1889 23.5874 34.7693 23.3937L35.8991 25.2821L33.4458 26.186C33.2198 26.2828 32.8002 26.3797 32.203 26.3797C31.8318 26.3797 31.4444 26.3474 31.0247 26.2667C30.7181 27.8807 30.3953 30.2211 30.3953 32.5775V38.7432L27.7967 36.3867C27.6514 36.2575 24.2297 33.1586 22.9223 30.3502C22.89 30.2856 22.8577 30.2211 22.8254 30.1565C22.9384 29.2365 23.1805 28.4456 23.5679 27.8807C23.7777 28.4618 24.036 29.0751 24.3104 29.6884C25.5209 32.2386 28.8458 35.2407 28.8458 35.2407V32.5614C28.8458 29.059 29.5237 25.6856 29.8465 24.2653C30.944 24.7011 31.7188 24.814 32.203 24.814C32.6226 24.814 32.8486 24.7333 32.9132 24.7172L33.6072 24.459L33.236 23.8133C32.4935 22.5544 32.3321 20.8112 32.4774 19.3909C33.5104 20.9081 34.8823 21.9088 36.5286 22.393L37.9167 22.7965L37.2711 21.5214C36.3026 19.6168 36.0767 18.1319 36.0444 17.1958C36.0282 16.5825 36.0928 16.0982 36.2058 15.727C39.2725 19.8912 42.8233 23.1677 45.3896 24.1523L46.5195 24.5719L46.2289 23.426C45.7447 21.3761 44.7118 18.8098 44.0177 17.1474C48.876 19.9558 55.6711 24.1523 55.6711 28.9944C55.6711 33.1586 55.7033 33.4491 55.7033 33.4653L55.7356 35.2568C55.7356 35.2568 59.3026 32.5614 60.7875 30.2856C60.8844 30.1565 60.9489 29.9951 61.0135 29.8337C61.1426 30.5761 61.1749 31.4477 61.1426 32.3193Z" fill="#494949"/>
<path opacity="0.1" d="M54.622 61.7431C54.5897 62.0175 54.5735 62.3081 54.5251 62.6147C54.4928 62.76 54.4767 62.9214 54.4283 63.0666C54.4283 63.0828 54.4283 63.0828 54.4283 63.0989C54.4283 63.1151 54.4283 63.1151 54.4283 63.1312V63.1796C54.4283 63.1958 54.4283 63.2119 54.4121 63.2119C54.396 63.3249 54.3798 63.4379 54.3476 63.567C54.3153 63.793 54.2507 64.0028 54.2023 64.2449C54.0732 64.7937 53.9279 65.3424 53.7504 65.9074C53.589 66.4238 53.4114 66.9242 53.2177 67.4407C53.0241 67.9572 52.8142 68.4575 52.6044 68.9579C52.5076 69.1838 52.4269 69.3775 52.3139 69.5712C52.2816 69.668 52.217 69.7488 52.1848 69.8456C51.9749 70.2652 51.7651 70.6849 51.5391 71.0723C51.41 71.2982 51.2809 71.4919 51.1518 71.7017C51.0549 71.847 50.9581 71.9923 50.8612 72.1537C49.2634 74.7038 47.262 77.8673 41.6612 78.2386H41.4998C35.9153 77.8835 33.9139 74.7038 32.2998 72.1537C32.203 71.9923 32.09 71.847 32.0093 71.7017C31.5251 70.9431 31.0732 70.0716 30.6535 69.1516C30.589 69.0063 30.5083 68.861 30.4437 68.6996C30.363 68.5382 30.2984 68.3607 30.2339 68.1993C30.137 67.9572 30.0402 67.7151 29.9434 67.4568C29.8788 67.3116 29.8304 67.1663 29.782 67.0372C29.6851 66.8112 29.6206 66.553 29.5398 66.327C29.4914 66.1817 29.443 66.0365 29.3946 65.9074C29.2977 65.6007 29.217 65.294 29.1363 65.0035C29.0556 64.7291 28.9911 64.4709 28.9427 64.2126C28.8942 63.9866 28.8458 63.7607 28.7974 63.5347C28.7813 63.4702 28.7651 63.4056 28.7651 63.341C28.749 63.2926 28.7328 63.2281 28.7328 63.1635V63.1312C28.7167 63.1151 28.7328 63.0989 28.7328 63.0989C28.7006 62.9214 28.6683 62.7438 28.636 62.5986C28.6037 62.2919 28.5714 61.9852 28.5391 61.727C28.5069 61.1459 28.523 60.6617 28.6037 60.2421C28.636 60.1452 28.636 60.0645 28.6683 59.9838C28.7005 59.8386 28.749 59.6933 28.7974 59.5642C28.8458 59.4028 28.8942 59.2575 28.9588 59.1123C29.0556 58.8863 29.1848 58.6442 29.2977 58.4344C29.3623 58.3214 29.4269 58.2084 29.4914 58.1116C29.6851 57.7888 29.8949 57.4982 30.0725 57.24C30.363 56.8526 30.6213 56.4814 30.6858 56.2393V56.207H30.702C30.702 56.1909 30.702 56.1747 30.702 56.1747C30.7181 56.1424 30.7181 56.094 30.7181 56.0779V48.6372C31.3798 49.4765 32.1546 50.2512 33.0746 50.9291L33.6718 51.3488C37.9651 54.5284 39.1272 55.3838 41.9518 55.3838C44.7763 55.3838 45.9384 54.5284 50.2479 51.3488L50.8451 50.9291C51.4262 50.5095 51.9588 50.0252 52.4269 49.5249V56.0779C52.4269 56.1102 52.4269 56.1424 52.443 56.1747C52.443 56.1747 52.443 56.1909 52.4591 56.207C52.5237 56.4491 52.7981 56.8365 53.0725 57.2238C53.1532 57.3368 53.2339 57.4498 53.3307 57.5789C53.4276 57.7403 53.5567 57.9017 53.6535 58.0793C53.9602 58.5635 54.2507 59.1284 54.4444 59.7902C54.4605 59.8386 54.4767 59.9031 54.4928 59.9677C54.509 60.0484 54.5251 60.1291 54.5413 60.2259C54.6381 60.6456 54.6542 61.1621 54.622 61.7431Z" fill="#979797"/>
</svg>
