<svg width="17" height="15" viewBox="0 0 17 15" fill="none" xmlns="http://www.w3.org/2000/svg">
<path d="M0 5.09587V4.89717C0 2.5025 1.67742 0.460012 3.96445 0.0667243C5.44863 -0.193298 7.01914 0.315783 8.10156 1.43432L8.5 1.84474L8.86855 1.43432C9.98086 0.315783 11.5215 -0.193298 13.0355 0.0667243C15.3232 0.460012 17 2.5025 17 4.89717V5.09587C17 6.5176 16.4289 7.87766 15.4195 8.84718L9.41973 14.6266C9.1707 14.8664 8.84199 15 8.5 15C8.15801 15 7.8293 14.8664 7.58027 14.6266L1.58014 8.84718C0.57209 7.87766 9.96094e-06 6.5176 9.96094e-06 5.09587H0Z" fill="#FFDD8F"/>
</svg>
