<svg width="22" height="25" viewBox="0 0 22 25" fill="none" xmlns="http://www.w3.org/2000/svg">
<path d="M0.585938 9.375H21.2891C21.6113 9.375 21.875 9.63867 21.875 9.96094V22.6562C21.875 23.9502 20.8252 25 19.5312 25H2.34375C1.0498 25 0 23.9502 0 22.6562V9.96094C0 9.63867 0.263672 9.375 0.585938 9.375ZM21.875 7.22656V5.46875C21.875 4.1748 20.8252 3.125 19.5312 3.125H17.1875V0.585938C17.1875 0.263672 16.9238 0 16.6016 0H14.6484C14.3262 0 14.0625 0.263672 14.0625 0.585938V3.125H7.8125V0.585938C7.8125 0.263672 7.54883 0 7.22656 0H5.27344C4.95117 0 4.6875 0.263672 4.6875 0.585938V3.125H2.34375C1.0498 3.125 0 4.1748 0 5.46875V7.22656C0 7.54883 0.263672 7.8125 0.585938 7.8125H21.2891C21.6113 7.8125 21.875 7.54883 21.875 7.22656Z" fill="#FFFAEE"/>
</svg>
