<svg width="21" height="19" viewBox="0 0 21 19" fill="none" xmlns="http://www.w3.org/2000/svg">
<path d="M6.41484 16.4938C5.80092 15.7991 5.80092 14.6696 6.41495 13.9754L6.69635 13.6571H6.3C5.43145 13.6571 4.725 12.8582 4.725 11.876C4.725 10.8938 5.43145 10.0949 6.3 10.0949L6.69769 10.0947L6.41484 9.77381C5.80092 9.07918 5.80092 7.94967 6.41484 7.25503C6.71344 6.92034 7.11047 6.7348 7.53047 6.7348C7.84468 6.7348 8.14472 6.83866 8.40066 7.03113L8.40197 6.00143C8.40197 4.6515 7.371 3.5628 6.10345 3.5628C4.6597 3.5628 4.20131 4.62034 3.4755 5.90533C1.96613 8.57253 0.837703 11.4639 0.128625 14.4769C0.0412453 14.8388 0 15.2062 0 15.5772C0 17.85 2.05078 19.492 4.11141 18.8656L6.06375 18.2756C6.77709 18.0579 7.3733 17.5932 7.78673 16.9869C7.70296 17.0023 7.61818 17.0151 7.53165 17.0151C7.11047 17.0133 6.71344 16.8277 6.41484 16.4938ZM11.258 5.59193L11.2875 0.593702C11.2875 0.264383 11.0545 0 10.7625 0H10.2375C9.94629 0 9.7125 0.264383 9.7125 0.593702L9.68297 5.59193C9.91554 5.43857 10.1824 5.34424 10.4409 5.34424C10.6995 5.34424 11.0545 5.43608 11.258 5.59193ZM13.8403 15.6515C14.0454 15.4195 14.0454 15.044 13.8403 14.8121L13.5589 14.4939C12.8974 13.7458 13.3659 12.4668 14.3015 12.4668H14.7C14.9902 12.4668 15.225 12.2012 15.225 11.8731C15.225 11.5449 14.9902 11.2794 14.7 11.2794H14.3023C13.3668 11.2794 12.8983 10.0003 13.5598 9.25225L13.8412 8.93399C14.0462 8.70207 14.0462 8.32656 13.8412 8.09464C13.6361 7.86273 13.3037 7.86273 13.0989 8.09464L12.8175 8.4129C12.157 9.16156 11.025 8.63094 11.025 7.57341V7.12368C11.025 6.79551 10.7902 6.56337 10.5 6.56337C10.2098 6.56337 9.975 6.82891 9.975 7.12368V7.57341C9.975 8.63131 8.84395 9.16119 8.18245 8.41312L7.90125 8.09661C7.69617 7.86469 7.36378 7.86469 7.15903 8.09661C6.95428 8.32852 6.95395 8.70404 7.15903 8.93595L7.44043 9.25421C8.10193 10.0023 7.6334 11.2813 6.69788 11.2813H6.3C6.00981 11.2813 5.775 11.5469 5.775 11.875C5.775 12.2032 6.00981 12.4687 6.3 12.4687H6.69769C7.63317 12.4687 8.10173 13.7478 7.44023 14.4959L7.15883 14.8141C6.95376 15.046 6.95376 15.4215 7.15883 15.6534C7.26137 15.7694 7.39571 15.8274 7.52994 15.8274C7.66418 15.8274 7.79861 15.7694 7.90105 15.6534L8.18245 15.3352C8.84297 14.5865 9.975 15.1171 9.975 16.1747V16.6244C9.975 16.9526 10.2098 17.2181 10.5 17.2181C10.7902 17.2181 11.025 16.9526 11.025 16.6244V16.1747C11.025 15.1168 12.156 14.5869 12.8175 15.3349L13.0989 15.6531C13.2015 15.7691 13.3358 15.8271 13.4701 15.8271C13.6043 15.8271 13.7386 15.7665 13.8403 15.6515ZM9.45 11.2469C9.16007 11.2469 8.925 10.9812 8.925 10.6866C8.925 10.3921 9.16125 10.0595 9.45 10.0595C9.73875 10.0595 9.975 10.3601 9.975 10.6532C9.975 10.9464 9.73875 11.2469 9.45 11.2469ZM11.55 13.6217C11.2601 13.6217 11.025 13.3558 11.025 13.028C11.025 12.7002 11.2601 12.4677 11.55 12.4677C11.8399 12.4677 12.075 12.7336 12.075 13.0614C12.075 13.3892 11.8387 13.6217 11.55 13.6217ZM20.872 14.4752C20.1626 11.4603 19.0339 8.57157 17.5252 5.90362C16.7993 4.61863 16.341 3.5611 14.8972 3.5611C13.63 3.5611 12.6 4.65017 12.6 6.0001V7.02943C12.8558 6.83692 13.1558 6.7331 13.4702 6.7331C13.8908 6.7331 14.2866 6.91859 14.5842 7.25518C15.1981 7.94981 15.1981 9.07933 14.5842 9.77396L14.3028 10.092L14.7 10.0929C15.5685 10.0929 16.275 10.8922 16.275 11.874C16.275 12.8562 15.5685 13.6551 14.7 13.6551H14.3023L14.5837 13.9734C15.1976 14.668 15.1976 15.7975 14.5835 16.4918C14.286 16.8282 13.8905 17.0135 13.4698 17.0135C13.3833 17.0135 13.2988 17.0007 13.2151 16.9854C13.6285 17.5917 14.2247 18.0563 14.938 18.2741L16.8904 18.8641C18.9492 19.492 21 17.8482 21 15.5772C21 15.2062 20.9573 14.8388 20.872 14.4752Z" fill="#FFDD8F"/>
</svg>
