<svg width="25" height="25" viewBox="0 0 25 25" fill="none" xmlns="http://www.w3.org/2000/svg">
<path d="M12.1094 0C5.41992 0 0 5.41992 0 12.1094C0 18.7988 5.41992 24.2188 12.1094 24.2188C18.7988 24.2188 24.2188 18.7988 24.2188 12.1094C24.2188 5.41992 18.7988 0 12.1094 0ZM16.0156 8.20312C16.8799 8.20312 17.5781 8.90137 17.5781 9.76562C17.5781 10.6299 16.8799 11.3281 16.0156 11.3281C15.1514 11.3281 14.4531 10.6299 14.4531 9.76562C14.4531 8.90137 15.1514 8.20312 16.0156 8.20312ZM7.42188 19.9219C6.12793 19.9219 5.07812 18.8965 5.07812 17.627C5.07812 16.6504 6.46973 14.6777 7.10938 13.8281C7.26563 13.6182 7.57812 13.6182 7.73437 13.8281C8.37402 14.6777 9.76562 16.6504 9.76562 17.627C9.76562 18.8965 8.71582 19.9219 7.42188 19.9219ZM8.20312 11.3281C7.33887 11.3281 6.64062 10.6299 6.64062 9.76562C6.64062 8.90137 7.33887 8.20312 8.20312 8.20312C9.06738 8.20312 9.76562 8.90137 9.76562 9.76562C9.76562 10.6299 9.06738 11.3281 8.20312 11.3281ZM16.5137 18.8574C15.4199 17.5488 13.8135 16.7969 12.1094 16.7969C11.0742 16.7969 11.0742 15.2344 12.1094 15.2344C14.2773 15.2344 16.3232 16.1914 17.71 17.8613C18.3838 18.6621 17.1631 19.6436 16.5137 18.8574Z" fill="#046D58"/>
</svg>
