<svg width="78" height="81" viewBox="0 0 78 81" fill="none" xmlns="http://www.w3.org/2000/svg">
<path d="M77.6685 81.322H0.315918C0.315918 81.322 2.2896 71.5483 3.26855 68.2957C4.37381 64.6641 7.65802 62.0431 11.3054 60.8589C14.4475 59.8325 16.6422 59.7536 19.737 59.5325C20.2264 59.501 20.7475 59.4536 21.2843 59.422C24.4896 58.7431 29.9843 55.5536 29.9843 51.2115V45.8904H47.9685V51.2115C47.9685 55.5536 53.4633 58.7431 56.6843 59.422C57.237 59.4694 57.7422 59.501 58.2317 59.5325C61.3264 59.7536 63.5212 59.8325 66.6633 60.8589C70.2949 62.0431 73.5949 64.6641 74.7001 68.2957C75.6791 71.5483 77.6685 81.322 77.6685 81.322Z" fill="#046D58"/>
<path d="M47.9843 51.2115V46.0168C48.9948 45.022 49.7054 44.1536 50.0054 43.7431C51.8054 41.3115 52.3264 38.3589 53.0211 37.0957C58.3422 38.1694 58.7843 29.4694 58.5948 27.4168C58.4054 25.3641 55.5001 26.1536 55.5001 26.1536C55.5632 23.7852 55.3106 14.9589 55.1685 14.3905C55.0422 11.9589 50.5422 4.1273 44.8264 4.80625C42.7422 2.94309 39.2369 1.44309 35.0054 2.24836C30.7738 3.05362 24.2685 7.66415 22.058 13.3799C19.8475 19.0957 20.0843 24.3536 21.9475 26.2168C21.9475 26.2168 19.5948 25.522 19.4054 27.5747C19.2159 29.6273 19.958 38.801 24.1422 38.2484C24.8527 39.4957 25.2317 41.5799 26.6685 43.7273C27.0632 44.3115 28.279 45.7799 30.0159 47.2484V51.1957C30.0159 55.5378 24.5211 58.7273 21.3159 59.4063C20.7632 59.4536 20.258 59.4852 19.7685 59.5168C23.1001 65.7536 30.5211 70.0799 39.0159 70.0799C47.5106 70.0799 54.9475 65.7536 58.279 59.5168C57.7896 59.4852 57.2685 59.4378 56.7317 59.4063C53.479 58.7431 47.9843 55.5536 47.9843 51.2115Z" fill="#FDEDDF"/>
<path d="M58.2475 59.5326C54.9159 65.7694 47.4948 70.0957 38.9843 70.0957C30.4896 70.0957 23.0685 65.7694 19.7369 59.5326C20.2264 59.501 20.7475 59.4536 21.2843 59.422C21.5369 59.3747 21.8211 59.2957 22.1054 59.201C25.9738 63.5747 32.1317 66.3852 38.9843 66.3852C45.8527 66.3852 52.0106 63.5747 55.879 59.201C56.1632 59.2957 56.4317 59.3747 56.7001 59.422C57.2369 59.4536 57.7422 59.501 58.2475 59.5326Z" fill="#FDEDDF"/>
<path d="M57.7264 13.001C56.2737 9.63781 52.4527 4.79044 47.8264 2.20097C47.6685 2.10623 47.5106 2.02728 47.3685 1.94833C45.9474 1.23781 44.4474 0.732545 42.9158 0.543071C42.6948 0.511492 42.4737 0.511492 42.2527 0.495702C41.779 0.464123 41.2895 0.464123 40.8 0.511492C40.4843 0.543071 40.2 0.57465 39.9 0.622018C39.7264 0.653597 39.5685 0.685176 39.3948 0.732545C38.9685 0.811492 38.5579 0.937808 38.1474 1.0957C35.8264 0.811492 33.4264 1.12728 31.1685 1.90097C30.979 1.96412 30.7737 2.02728 30.5685 2.10623C30.5369 2.12202 30.5369 2.12202 30.5053 2.13781C30.4737 2.1536 30.4579 2.16939 30.4264 2.16939C30.1579 2.27991 29.8737 2.37465 29.6053 2.50097C29.3211 2.61149 29.0527 2.7536 28.7843 2.8957C28.6106 2.97465 28.4369 3.06939 28.2632 3.14833C27.9948 3.30623 27.7264 3.46412 27.4422 3.62202C27.1579 3.7957 26.8895 3.98518 26.6211 4.17465C26.5737 4.20623 26.5264 4.23781 26.479 4.28518C23.1474 6.6536 19.8632 10.7273 17.8422 17.6115C12.6316 35.2799 13.4843 48.3378 17.4474 55.4747C17.7632 56.0589 18.1264 56.6115 18.4737 57.1168C18.8527 57.622 19.2158 58.0799 19.5948 58.5062C22.0106 61.2378 24.6632 62.4378 26.9211 63.0536C28.4843 63.4641 29.8579 63.5904 30.8369 63.7483H30.8527C30.8685 63.7483 30.8843 63.7483 30.9 63.7641C30.8685 63.2747 31.0737 63.2273 31.0737 63.2273L31.4211 63.3378L32.179 63.5589C32.179 63.5589 31.6895 62.8641 31.0579 62.0431C30.5843 61.4115 30.0316 60.6852 29.5422 60.1641C29.6527 59.722 29.4948 58.9957 29.2895 58.3483C29.4474 58.2062 29.5895 58.0799 29.7316 57.922C30.7579 56.8799 31.4685 55.5852 31.4685 54.1641V52.8536C31.4685 52.001 31.3895 48.2904 31.3895 48.2904C30.4579 47.6115 29.5264 46.8378 28.7053 45.9694C28.0264 45.2904 27.4106 44.5483 26.9053 43.7747C26.2895 42.8115 24.9158 39.7483 24.5369 37.7904C24.5211 37.7904 24.5053 37.7904 24.4579 37.8062V37.7431C24.4422 37.7431 22.9264 37.8852 22.1685 37.4273C22.1685 37.4115 22.1685 37.4115 22.1685 37.4115C20.2264 36.2431 19.8474 32.2325 19.8316 29.6747C19.8316 28.6325 19.6422 26.8799 20.9369 26.5168C21.1106 26.4852 21.2843 26.4694 21.4737 26.4694C21.5369 26.722 22.1685 29.1062 22.6422 28.9483C22.7053 28.9325 22.7527 28.9168 22.8158 28.8536H22.8316C23.0211 28.7115 23.179 28.4431 23.3053 28.1431C23.3843 27.9694 23.4632 27.7641 23.5264 27.6062C23.5737 27.4957 23.6843 27.2115 23.6843 27.2115C23.7316 27.101 23.7948 26.9747 23.8579 26.8641C23.9211 26.7536 23.9685 26.6273 24.0316 26.5168C24.0474 26.4852 24.8053 25.1904 25.2316 24.5904C25.2316 24.5904 25.2316 24.5746 25.2632 24.5431V24.5273C25.2632 24.5273 25.3422 24.4168 25.4369 24.2904C25.4843 24.2273 25.5316 24.1641 25.579 24.101C28.1369 20.8641 32.1 19.601 35.0369 16.7273C35.1948 16.6957 35.3527 16.6641 35.4948 16.6168C38.5106 15.8904 41.479 14.6904 44.1316 13.0957C44.2264 13.0483 44.3053 12.9852 44.4001 12.922C44.4632 12.8904 44.5106 12.8589 44.5737 12.8115C44.5422 12.8747 44.5106 12.9378 44.479 13.001C44.4316 13.1115 44.3685 13.2062 44.3369 13.3168C43.579 15.022 43.0737 16.7589 40.9422 17.1062L41.0053 17.722C42.8843 17.6431 45.2053 16.9325 46.8158 15.9378C46.8474 15.922 46.8948 15.9062 46.9264 15.8747C47.8895 16.9641 48.7895 18.101 49.6422 19.2694V19.2852C50.0211 19.822 50.3527 20.3747 50.6527 20.9431C50.6843 20.9747 50.7001 21.022 50.7158 21.0536C50.8422 21.2904 50.9685 21.5115 51.079 21.7483C51.0948 21.7641 51.0948 21.7799 51.0948 21.7799C51.4737 22.522 51.7737 23.2957 52.0264 24.101C52.4843 25.5852 52.8316 27.3378 53.5264 28.7273C53.5579 28.7589 53.5895 28.8062 53.6369 28.8378C53.6685 28.8536 53.6843 28.8694 53.7158 28.8694C53.7632 28.901 53.8264 28.9168 53.8895 28.9168C54.5843 28.9168 54.7737 27.0378 55.0579 26.4852V26.4694C55.3579 25.8694 56.3053 26.3746 56.6527 26.6431C58.0579 27.6852 57.4422 30.7957 57.1895 32.2799C56.8895 33.8589 56.2737 35.801 54.8053 36.6378C54.5369 36.8115 54.2211 36.922 53.8895 36.9852C53.6369 37.0483 53.4001 37.0325 53.1632 37.0168C53.0053 36.9852 52.8474 36.9694 52.6737 36.9694V36.9852C52.5158 38.4852 50.3685 44.2483 46.6264 47.2168L46.5158 54.1325C46.5158 55.4431 47.1158 56.6273 48 57.622C48.1737 57.8431 48.3948 58.0483 48.6 58.2536C48.4106 58.7589 48.2053 59.2326 47.9843 59.7062C47.7474 60.1957 47.4948 60.6694 47.2106 61.1115C46.8632 61.5536 47.4632 61.4747 48.3316 61.222C49.0737 61.0168 49.9737 60.6852 50.6211 60.4168C50.9685 60.2904 51.2369 60.1641 51.3632 60.1168C51.3948 60.1326 51.3948 60.1483 51.4264 60.1483C51.3632 60.3852 51.1579 61.2852 50.8579 62.2168C50.8106 62.3589 50.7632 62.5168 50.7158 62.6589C51.0474 62.5957 51.3632 62.5168 51.6632 62.4378C53.8737 61.8852 55.2474 61.1431 55.6422 60.8431C56.3843 60.2747 57.3158 59.5325 58.2948 58.4747C59.0369 57.6852 59.8264 56.7062 60.5527 55.4904C62.1474 52.8378 63.4579 49.0799 63.6948 43.6483C64.2158 32.4694 61.1369 20.9589 57.7264 13.001Z" fill="#FFDD8F"/>
<path opacity="0.1" d="M57.3 59.4694C56.7 60.0221 56.1474 60.4642 55.6737 60.8273C55.3421 61.0958 54.2842 61.6642 52.5947 62.1694C52.5947 62.1694 52.5947 62.1852 52.579 62.1852C52.3105 62.2642 51.9947 62.3589 51.6947 62.4379C51.3947 62.5168 51.0947 62.5958 50.7474 62.6589C50.7947 62.5168 50.8421 62.3589 50.8895 62.2168C51.1895 61.2852 51.3947 60.3852 51.4579 60.1484C51.4263 60.1326 51.4263 60.1168 51.3947 60.1168C51.2684 60.1642 51 60.2905 50.6526 60.4168C50.0053 60.6694 49.1053 61.0168 48.3632 61.2221C47.4947 61.4747 46.8948 61.5537 47.2421 61.1116C47.5263 60.6537 47.779 60.1958 48.0158 59.7063C48.2369 59.2484 48.4421 58.7589 48.6316 58.2537C48.4105 58.0484 48.2053 57.8431 48.0316 57.6221C47.1474 56.6273 46.5474 55.4431 46.5474 54.1326L46.6579 47.2326C44.4947 49.08 41.5263 50.8958 38.3369 50.8958C35.7947 50.8958 33.3947 49.7431 31.4211 48.3537C31.4369 48.9537 31.5 52.0484 31.5 52.8063V54.1168C31.5 55.5379 30.7895 56.8326 29.7632 57.8747C29.6211 58.0326 29.479 58.1589 29.3211 58.301C29.5105 58.9642 29.6684 59.6905 29.5737 60.1168C30.0474 60.6537 30.6 61.3642 31.0895 61.9958C31.7211 62.8168 32.2105 63.5116 32.2105 63.5116L31.4526 63.2905L31.1053 63.18C31.1053 63.18 30.8842 63.2116 30.9316 63.7168C30.9158 63.701 30.9 63.701 30.8842 63.701H30.8684C29.8895 63.5431 28.5158 63.4168 26.9526 63.0063C26.8263 62.9747 26.7 62.9273 26.5579 62.8958C24.6947 62.3589 22.5947 61.3642 20.5895 59.4537C20.3053 59.4852 20.0369 59.4852 19.7684 59.5168C23.1 65.7379 30.5211 70.0642 39.0158 70.0642C47.5263 70.0642 54.9474 65.7379 58.2632 59.5168C57.9316 59.5168 57.6158 59.4852 57.3 59.4694Z" fill="#B6B6B6"/>
<path opacity="0.1" d="M36.158 18.5115C36.1737 18.4957 36.1895 18.4957 36.1895 18.4957C37.2159 18.2431 38.2422 17.9431 39.2369 17.6115L39.458 19.7589C39.458 19.7589 43.1053 19.4905 46.658 18.3378C48.6948 20.0273 50.8264 26.3747 50.8738 26.5326C51.2211 27.7799 52.3737 28.6326 53.6685 28.6326C52.9895 27.2589 52.658 25.5536 52.2159 24.101C51.9632 23.2957 51.6632 22.522 51.2843 21.7799C51.2843 21.7799 51.2843 21.7642 51.2685 21.7484C51.158 21.5115 51.0316 21.2905 50.9053 21.0536C50.8895 21.022 50.8737 20.9905 50.8422 20.9431C50.5422 20.3747 50.2106 19.8378 49.8316 19.2852V19.2694C48.979 18.101 48.0948 16.9642 47.1159 15.8747C47.1159 15.8747 47.1159 15.8747 47.1001 15.8747C45.4895 16.901 43.1053 17.6431 41.179 17.722L41.1159 17.1063C43.2474 16.7747 43.7527 15.0221 44.5106 13.3168C44.5422 13.2063 44.6053 13.1115 44.6527 13.001C44.6843 12.9378 44.7159 12.8747 44.7474 12.8115C44.6843 12.8431 44.6369 12.8905 44.5737 12.9221C44.479 12.9852 44.4001 13.0326 44.3053 13.0957C41.5264 14.7694 38.3843 16.0168 35.2264 16.7273C35.2106 16.7273 35.2106 16.7431 35.1948 16.7431C32.258 19.6168 28.2948 20.8799 25.7369 24.1168C25.6895 24.1799 25.6422 24.2431 25.5948 24.3063C25.4843 24.4326 25.4211 24.5431 25.4211 24.5431V24.5589C25.3895 24.5905 25.3895 24.6063 25.3895 24.6063C24.9632 25.2063 24.2053 26.4852 24.1895 26.5326C24.1264 26.6431 23.7316 27.4957 23.6843 27.622C23.6211 27.7957 23.5422 27.9852 23.4632 28.1589C23.3843 28.3326 23.1001 28.601 23.0211 28.7273L25.9737 27.3378C26.2422 26.801 29.9527 21.4799 36.158 18.5115Z" fill="#373838"/>
<path opacity="0.3" d="M29.8895 13.1747L30.0632 12.7326L30.6474 11.2642C30.6474 11.2642 30.4422 11.1537 30.1106 11.0747C29.6843 10.9642 29.0527 10.8852 28.3579 11.0747C28.4211 10.8221 28.4843 10.5852 28.5474 10.3484C28.7527 9.70102 29.0053 9.1326 29.2895 8.64313C28.6737 8.87997 26.2895 10.001 25.2632 13.1431C25.1685 13.4115 25.1053 13.6958 25.0264 13.9958C25.5474 13.9326 26.0685 13.901 26.479 13.901C27.079 13.901 27.4895 13.9326 27.4895 13.9326L26.7158 15.7168L26.5579 16.08C26.5579 16.08 26.9053 16.1431 27.4579 16.0958C28.4843 16.0168 30.2053 15.5905 31.6422 13.7273C31.7053 13.6484 31.7685 13.5537 31.8316 13.4589C31.9737 13.2694 32.0843 13.0642 32.1948 12.8589C31.9422 12.9537 31.6895 13.0168 31.4685 13.0642C30.5369 13.2852 29.8895 13.1747 29.8895 13.1747Z" fill="white"/>
</svg>
